<?xml version="1.0" encoding="UTF-8"?>
<svg xmlns="http://www.w3.org/2000/svg" preserveAspectRatio="xMidYMid meet" viewBox="0 0 900 780" width="900" height="780">
  <defs>
    <marker id="arrow" viewBox="0 0 10 10" refX="10" refY="5" markerWidth="6" markerHeight="6" orient="auto-start-reverse">
      <path d="M 0 0 L 10 5 L 0 10 z" fill="#2c3e50"/>
    </marker>
    <marker id="arrow-dash" viewBox="0 0 10 10" refX="10" refY="5" markerWidth="6" markerHeight="6" orient="auto-start-reverse">
      <path d="M 0 0 L 10 5 L 0 10 z" fill="#7f8c8d"/>
    </marker>
    <style>
      .title { font-family: system-ui, sans-serif; font-size: 20px; font-weight: 700; fill: #1a252f; text-anchor: middle; }
      .node-text { font-family: system-ui, sans-serif; font-size: 11px; fill: #1a252f; text-anchor: middle; }
      .node-sub { font-family: system-ui, sans-serif; font-size: 9px; fill: #5d6d7e; text-anchor: middle; }
      .label-yes { font-family: system-ui, sans-serif; font-size: 10px; font-weight: 600; fill: #27ae60; }
      .label-no { font-family: system-ui, sans-serif; font-size: 10px; font-weight: 600; fill: #c0392b; }
      .callout-text { font-family: system-ui, sans-serif; font-size: 10px; fill: #6e2c00; text-anchor: middle; }
      .callout-title { font-family: system-ui, sans-serif; font-size: 11px; font-weight: 700; fill: #6e2c00; text-anchor: middle; }
    </style>
  </defs>

  <!-- Background -->
  <rect width="900" height="780" fill="#f8f9fa" rx="8"/>

  <!-- Title -->
  <text x="450" y="30" class="title">Adoption &amp; Foster Care — Decision Paths</text>
  <line x1="120" y1="40" x2="780" y2="40" stroke="#2c3e50" stroke-width="1.5"/>

  <!-- ==================== ARROWS ==================== -->

  <!-- Root to Biological (left) -->
  <line x1="390" y1="68" x2="250" y2="105" stroke="#2c3e50" stroke-width="1.5" marker-end="url(#arrow)"/>
  <!-- Root to Adoption (right) -->
  <line x1="510" y1="68" x2="650" y2="105" stroke="#2c3e50" stroke-width="1.5" marker-end="url(#arrow)"/>

  <!-- Biological YES to Fertility Testing -->
  <line x1="170" y1="128" x2="140" y2="168" stroke="#2c3e50" stroke-width="1.5" marker-end="url(#arrow)"/>
  <!-- Biological NO to Consider adoption (dashed cross-ref) -->
  <line x1="330" y1="118" x2="780" y2="118" stroke="#7f8c8d" stroke-width="1.2" stroke-dasharray="6,4" marker-end="url(#arrow-dash)"/>

  <!-- Fertility Testing to Treatable? -->
  <line x1="140" y1="208" x2="140" y2="240" stroke="#2c3e50" stroke-width="1.5" marker-end="url(#arrow)"/>

  <!-- Treatable YES to Treatment+trying -->
  <line x1="60" y1="263" x2="55" y2="305" stroke="#2c3e50" stroke-width="1.5" marker-end="url(#arrow)"/>
  <!-- Treatable NO to IVF -->
  <line x1="220" y1="263" x2="225" y2="305" stroke="#2c3e50" stroke-width="1.5" marker-end="url(#arrow)"/>

  <!-- IVF to IVF success? -->
  <line x1="225" y1="358" x2="225" y2="390" stroke="#2c3e50" stroke-width="1.5" marker-end="url(#arrow)"/>

  <!-- IVF success YES to Pregnancy -->
  <line x1="150" y1="413" x2="100" y2="450" stroke="#2c3e50" stroke-width="1.5" marker-end="url(#arrow)"/>
  <!-- IVF success NO dashed to Consider adoption -->
  <line x1="300" y1="403" x2="780" y2="403" stroke="#7f8c8d" stroke-width="1.2" stroke-dasharray="6,4" marker-end="url(#arrow-dash)"/>

  <!-- Adoption decision to 5 paths (staggered: 3 top row, 2 bottom row) -->
  <line x1="550" y1="143" x2="410" y2="178" stroke="#2c3e50" stroke-width="1.5" marker-end="url(#arrow)"/>
  <line x1="600" y1="143" x2="570" y2="178" stroke="#2c3e50" stroke-width="1.5" marker-end="url(#arrow)"/>
  <line x1="650" y1="143" x2="730" y2="178" stroke="#2c3e50" stroke-width="1.5" marker-end="url(#arrow)"/>
  <line x1="600" y1="143" x2="410" y2="248" stroke="#2c3e50" stroke-width="1.5" marker-end="url(#arrow)"/>
  <line x1="650" y1="143" x2="570" y2="248" stroke="#2c3e50" stroke-width="1.5" marker-end="url(#arrow)"/>

  <!-- ==================== NODES ==================== -->

  <!-- Root: Want to become a parent? -->
  <rect x="330" y="46" width="240" height="32" rx="16" fill="#fef9e7" stroke="#f0c14b" stroke-width="2"/>
  <text x="450" y="67" class="node-text" font-weight="600">Want to become a parent?</text>

  <!-- Decision: Biological path available? -->
  <rect x="150" y="105" width="200" height="32" rx="16" fill="#fef9e7" stroke="#f0c14b" stroke-width="2"/>
  <text x="250" y="126" class="node-text" font-weight="600">Biological path available?</text>

  <!-- Decision: Choose adoption path -->
  <rect x="550" y="105" width="200" height="32" rx="16" fill="#fef9e7" stroke="#f0c14b" stroke-width="2"/>
  <text x="650" y="126" class="node-text" font-weight="600">Choose adoption path</text>

  <!-- Path: Fertility testing -->
  <rect x="70" y="168" width="140" height="40" rx="8" fill="#d6eaf8" stroke="#3498db" stroke-width="1.5"/>
  <text x="140" y="185" class="node-text">Fertility testing</text>
  <text x="140" y="200" class="node-sub">INT TN 45 · $200–$800</text>

  <!-- Decision: Treatable condition? -->
  <rect x="60" y="240" width="160" height="32" rx="16" fill="#fef9e7" stroke="#f0c14b" stroke-width="2"/>
  <text x="140" y="261" class="node-text" font-weight="600">Treatable condition?</text>

  <!-- Path: Treatment + trying -->
  <rect x="10" y="305" width="110" height="40" rx="8" fill="#d6eaf8" stroke="#3498db" stroke-width="1.5"/>
  <text x="65" y="322" class="node-text">Treatment + trying</text>
  <text x="65" y="337" class="node-sub">RES TN 40/mo · +2 SP/mo</text>

  <!-- Path: IVF cycles -->
  <rect x="150" y="305" width="150" height="53" rx="8" fill="#d6eaf8" stroke="#3498db" stroke-width="1.5"/>
  <text x="225" y="322" class="node-text">IVF cycles</text>
  <text x="225" y="337" class="node-sub">2d10 vs IVF TN · $12K–$25K/cycle</text>
  <text x="225" y="350" class="node-sub">+5 SP each failure</text>

  <!-- Decision: IVF success? -->
  <rect x="150" y="390" width="150" height="32" rx="16" fill="#fef9e7" stroke="#f0c14b" stroke-width="2"/>
  <text x="225" y="411" class="node-text" font-weight="600">IVF success?</text>

  <!-- Path: Pregnancy path -->
  <rect x="40" y="450" width="120" height="32" rx="8" fill="#d5f5e3" stroke="#27ae60" stroke-width="1.5"/>
  <text x="100" y="471" class="node-text" font-weight="600">Pregnancy path</text>

  <!-- Path: Domestic infant -->
  <rect x="340" y="178" width="140" height="53" rx="8" fill="#d6eaf8" stroke="#3498db" stroke-width="1.5"/>
  <text x="410" y="195" class="node-text">Domestic infant</text>
  <text x="410" y="210" class="node-sub">$20K–$40K · 1–3 yrs</text>
  <text x="410" y="223" class="node-sub" fill="#c0392b">High difficulty</text>

  <!-- Path: International -->
  <rect x="500" y="178" width="140" height="53" rx="8" fill="#d6eaf8" stroke="#3498db" stroke-width="1.5"/>
  <text x="570" y="195" class="node-text">International</text>
  <text x="570" y="210" class="node-sub">$25K–$50K · 2–5 yrs</text>
  <text x="570" y="223" class="node-sub" fill="#c0392b">Very High difficulty</text>

  <!-- Path: Foster-to-adopt -->
  <rect x="660" y="178" width="140" height="53" rx="8" fill="#d6eaf8" stroke="#3498db" stroke-width="1.5"/>
  <text x="730" y="195" class="node-text">Foster-to-adopt</text>
  <text x="730" y="210" class="node-sub">$0–$5K · 1–3 yrs</text>
  <text x="730" y="223" class="node-sub" fill="#e67e22">Medium difficulty</text>

  <!-- Path: Relative adoption -->
  <rect x="340" y="248" width="140" height="53" rx="8" fill="#d6eaf8" stroke="#3498db" stroke-width="1.5"/>
  <text x="410" y="265" class="node-text">Relative adoption</text>
  <text x="410" y="280" class="node-sub">$1K–$5K · 6–18 mos</text>
  <text x="410" y="293" class="node-sub" fill="#e67e22">Medium difficulty</text>

  <!-- Path: Foster care (non-adoption) -->
  <rect x="500" y="248" width="140" height="70" rx="8" fill="#d6eaf8" stroke="#3498db" stroke-width="1.5"/>
  <text x="570" y="265" class="node-text">Foster care</text>
  <text x="570" y="280" class="node-sub">(non-adoption)</text>
  <text x="570" y="295" class="node-sub">Stipend $400–$900/mo</text>
  <text x="570" y="310" class="node-sub" fill="#e67e22">Ongoing · Medium</text>

  <!-- ==================== LABELS ==================== -->

  <!-- YES/NO labels on Biological branch -->
  <text x="155" y="100" class="label-yes">YES</text>
  <text x="340" y="115" class="label-no">NO →</text>

  <!-- YES/NO labels on Treatable branch -->
  <text x="45" y="256" class="label-yes">YES</text>
  <text x="235" y="256" class="label-no">NO</text>

  <!-- YES/NO labels on IVF success branch -->
  <text x="135" y="406" class="label-yes">YES</text>
  <text x="310" y="400" class="label-no">NO →</text>

  <!-- "Consider adoption" label on dashed cross-refs -->
  <text x="790" y="115" class="node-sub" fill="#7f8c8d" text-anchor="start">Consider adoption</text>
  <text x="790" y="400" class="node-sub" fill="#7f8c8d" text-anchor="start">Consider adoption</text>

  <!-- ==================== CALLOUT BOX ==================== -->
  <rect x="120" y="540" width="660" height="100" rx="12" fill="#fef9e7" stroke="#e67e22" stroke-width="2" stroke-dasharray="8,4"/>
  <text x="450" y="568" class="callout-title">⚠️ The Waiting Period</text>
  <line x1="150" y1="576" x2="750" y2="576" stroke="#e67e22" stroke-width="0.8"/>
  <text x="450" y="596" class="callout-text">+2 SP/month during adoption wait</text>
  <text x="450" y="616" class="callout-text">After 12 months: +3 SP/month</text>
  <text x="450" y="636" class="callout-text">Failed adoption: +10 SP + RES TN 60 to continue</text>

  <!-- ==================== DIFFICULTY LEGEND ==================== -->
  <rect x="30" y="670" width="840" height="60" rx="8" fill="#ecf0f1" stroke="#bdc3c7" stroke-width="1"/>
  <text x="450" y="688" font-family="system-ui, sans-serif" font-size="10px" fill="#7f8c8d" text-anchor="middle" font-weight="600">Difficulty Legend</text>
  <rect x="180" y="698" width="12" height="12" rx="3" fill="#d6eaf8" stroke="#3498db" stroke-width="1"/>
  <text x="198" y="709" font-family="system-ui, sans-serif" font-size="9px" fill="#5d6d7e" text-anchor="start">Path node</text>
  <rect x="310" y="698" width="12" height="12" rx="6" fill="#fef9e7" stroke="#f0c14b" stroke-width="1"/>
  <text x="328" y="709" font-family="system-ui, sans-serif" font-size="9px" fill="#5d6d7e" text-anchor="start">Decision node</text>
  <rect x="440" y="698" width="12" height="12" rx="3" fill="#d5f5e3" stroke="#27ae60" stroke-width="1"/>
  <text x="458" y="709" font-family="system-ui, sans-serif" font-size="9px" fill="#5d6d7e" text-anchor="start">Success outcome</text>
  <line x1="590" y1="704" x2="620" y2="704" stroke="#2c3e50" stroke-width="1.5"/>
  <text x="625" y="709" font-family="system-ui, sans-serif" font-size="9px" fill="#5d6d7e" text-anchor="start">Main flow</text>
  <line x1="690" y1="704" x2="720" y2="704" stroke="#7f8c8d" stroke-width="1.2" stroke-dasharray="5,3"/>
  <text x="725" y="709" font-family="system-ui, sans-serif" font-size="9px" fill="#5d6d7e" text-anchor="start">Cross-reference</text>

  <!-- Bottom border accent -->
  <rect x="0" y="768" width="900" height="12" rx="0" fill="#2c3e50" opacity="0.15"/>
</svg>