<svg xmlns="http://www.w3.org/2000/svg" preserveAspectRatio="xMidYMid meet" viewBox="0 0 740 400" font-family="Segoe UI, Helvetica Neue, Arial, sans-serif">
  <title>The Credit Card Trap</title>
  <desc>Line chart showing Diego's $1,200 repair balance declining over 60 months with minimum payments vs cumulative payments totaling $2,100</desc>
  <defs>
    <filter id="shadow"><feDropShadow dx="0" dy="2" stdDeviation="2" flood-opacity="0.1"/></filter>
  </defs>

  <text x="370" y="28" text-anchor="middle" font-size="18" font-weight="700" fill="#2c3e50">The Credit Card Trap: Diego's $1,200 Repair</text>
  <text x="370" y="46" text-anchor="middle" font-size="12" fill="#7f8c8d">APR 22% · Minimum payment ~$35/month</text>

  <!-- Chart area: x=80..680, y=60..300 -->
  <g stroke="#e8e8e8" stroke-width="1">
    <line x1="80" y1="60" x2="680" y2="60"/>
    <line x1="80" y1="105" x2="680" y2="105"/>
    <line x1="80" y1="150" x2="680" y2="150"/>
    <line x1="80" y1="195" x2="680" y2="195"/>
    <line x1="80" y1="240" x2="680" y2="240"/>
    <line x1="80" y1="285" x2="680" y2="285"/>
    <line x1="80" y1="300" x2="680" y2="300"/>
  </g>

  <!-- Y-axis labels -->
  <g font-size="10" fill="#7f8c8d" text-anchor="end">
    <text x="72" y="64">$2,100</text>
    <text x="72" y="109">$1,800</text>
    <text x="72" y="154">$1,500</text>
    <text x="72" y="199">$1,200</text>
    <text x="72" y="244">$900</text>
    <text x="72" y="289">$600</text>
    <text x="72" y="304">$300</text>
  </g>
  <!-- Right Y-axis label — moved inward so text fits in viewBox -->
  <text x="690" y="64" text-anchor="start" font-size="9" fill="#2980b9">← Cumul.</text>
  <text x="690" y="304" text-anchor="start" font-size="9" fill="#e74c3c">Balance →</text>

  <!-- X-axis labels -->
  <g font-size="11" fill="#7f8c8d" text-anchor="middle">
    <text x="80" y="320">0</text>
    <text x="200" y="320">12</text>
    <text x="320" y="320">24</text>
    <text x="440" y="320">36</text>
    <text x="560" y="320">48</text>
    <text x="680" y="320">60</text>
    <text x="380" y="350" font-size="13">Months</text>
  </g>

  <!-- Y axis title -->
  <text x="20" y="180" text-anchor="middle" font-size="12" fill="#7f8c8d" transform="rotate(-90, 20, 180)">Amount ($)</text>

  <!-- Balance curve -->
  <path d="M 80,199 Q 140,210 200,222 Q 260,235 320,238 Q 380,248 440,254 Q 500,270 560,280 Q 620,292 680,300"
        fill="none" stroke="#e74c3c" stroke-width="3" stroke-linecap="round"/>

  <!-- Cumulative payments line -->
  <path d="M 80,300 Q 140,295 200,282 Q 260,250 320,235 Q 380,190 440,170 Q 500,120 560,95 Q 620,75 680,60"
        fill="none" stroke="#2980b9" stroke-width="2" stroke-dasharray="6,4" stroke-linecap="round"/>

  <!-- Annotations -->
  <g font-size="11" font-weight="600">
    <!-- Year 1 annotation -->
    <circle cx="200" cy="222" r="5" fill="#e74c3c"/>
    <rect x="215" y="200" width="150" height="36" rx="4" fill="#fff" stroke="#e74c3c" stroke-width="1"/>
    <text x="223" y="216" fill="#c0392b">Year 1: Paid $420</text>
    <text x="223" y="230" fill="#c0392b">Balance: $1,003</text>

    <!-- Year 3 annotation -->
    <circle cx="440" cy="254" r="5" fill="#e74c3c"/>
    <rect x="455" y="232" width="150" height="36" rx="4" fill="#fff" stroke="#e74c3c" stroke-width="1"/>
    <text x="463" y="248" fill="#c0392b">Year 3: Paid $1,260</text>
    <text x="463" y="262" fill="#c0392b">Balance: $642</text>

    <!-- Year 5 annotation — shifted left so it doesn't clip right edge -->
    <circle cx="680" cy="300" r="5" fill="#e74c3c"/>
    <rect x="540" y="270" width="140" height="30" rx="4" fill="#fadbd8" stroke="#e74c3c" stroke-width="1"/>
    <text x="548" y="284" fill="#c0392b">Year 5: Paid $2,100</text>
    <text x="548" y="296" fill="#c0392b">Total interest: $900</text>
  </g>

  <!-- Legend -->
  <g transform="translate(80, 360)" font-size="11">
    <line x1="0" y1="-4" x2="20" y2="-4" stroke="#e74c3c" stroke-width="3"/>
    <text x="26" y="0">Remaining balance</text>
    <line x1="160" y1="-4" x2="180" y2="-4" stroke="#2980b9" stroke-width="2" stroke-dasharray="6,4"/>
    <text x="186" y="0">Cumulative payments</text>
  </g>
</svg>